HIERARCHY
ROOT Hips
{
  OFFSET -22.0383 92.8187 14.2
  CHANNELS 6 Xposition Yposition Zposition Zrotation Xrotation Yrotation
  JOINT ToSpine
  {
    OFFSET -2.69724 7.43032 -0.144315
    CHANNELS 3 Zrotation Xrotation Yrotation
    JOINT Spine
    {
      OFFSET -0.0310711 10.7595 1.96963
      CHANNELS 3 Zrotation Xrotation Yrotation
      JOINT Spine1
      {
        OFFSET 13.1342 3.43533 0.764692
        CHANNELS 3 Zrotation Xrotation Yrotation
        JOINT Neck
        {
          OFFSET 29.8703 7.82586 -0.130764
          CHANNELS 3 Zrotation Xrotation Yrotation
          JOINT Head
          {
            OFFSET 9.52751 0.295786 -0.907742
            CHANNELS 3 Zrotation Xrotation Yrotation
            End Site
            {
              OFFSET 16.4037 0.713936 2.7358
            }
          }
        }
        JOINT LeftShoulder
        {
          OFFSET 27.5574 4.95586 2.47156
          CHANNELS 3 Zrotation Xrotation Yrotation
          JOINT LeftArm
          {
            OFFSET 1.20734 -0.998971 20.1238
            CHANNELS 3 Zrotation Xrotation Yrotation
            JOINT LeftForeArm
            {
              OFFSET 26.8049 -0.0536703 -0.155908
              CHANNELS 3 Zrotation Xrotation Yrotation
              JOINT LeftHand
              {
                OFFSET 26.6817 0 0.320147
                CHANNELS 3 Zrotation Xrotation Yrotation
                End Site
                {
                  OFFSET 18.6119 0 0.382219
                }
              }
            }
          }
        }
        JOINT RightShoulder
        {
          OFFSET 27.5927 4.71444 -2.65209
          CHANNELS 3 Zrotation Xrotation Yrotation
          JOINT RightArm
          {
            OFFSET 2.83739 -1.17114 -18.7564
            CHANNELS 3 Zrotation Xrotation Yrotation
            JOINT RightForeArm
            {
              OFFSET 28.839 -0.0548439 1.22491
              CHANNELS 3 Zrotation Xrotation Yrotation
              JOINT RightHand
              {
                OFFSET 26.5114 0 -0.101894
                CHANNELS 3 Zrotation Xrotation Yrotation
                End Site
                {
                  OFFSET 18.2168 0 0
                }
              }
            }
          }
        }
      }
    }
  }
  JOINT LeftUpLeg
  {
    OFFSET -4.76168 -1.9167 -10.2353
    CHANNELS 3 Zrotation Xrotation Yrotation
    JOINT LeftLeg
    {
      OFFSET 2.55951 -42.0585 -8.02213
      CHANNELS 3 Zrotation Xrotation Yrotation
      JOINT LeftFoot
      {
        OFFSET 3.16357 -42.5282 -3.95426
        CHANNELS 3 Zrotation Xrotation Yrotation
        JOINT LeftToeBase
        {
          OFFSET 0.346054 -6.02161 12.8035
          CHANNELS 3 Zrotation Xrotation Yrotation
          End Site
          {
            OFFSET 0.134235 -1.35082 5.13018
          }
        }
      }
    }
  }
  JOINT RightUpLeg
  {
    OFFSET -4.94151 -1.41743 10.6446
    CHANNELS 3 Zrotation Xrotation Yrotation
    JOINT RightLeg
    {
      OFFSET -2.56294 -42.0364 -7.94377
      CHANNELS 3 Zrotation Xrotation Yrotation
      JOINT RightFoot
      {
        OFFSET -3.0952 -42.555 -4.02241
        CHANNELS 3 Zrotation Xrotation Yrotation
        JOINT RightToeBase
        {
          OFFSET -0.0828122 -6.13587 12.8035
          CHANNELS 3 Zrotation Xrotation Yrotation
          End Site
          {
            OFFSET -0.131328 -1.35082 5.13018
          }
        }
      }
    }
  }
}
MOTION
Frames:	15
Frame Time:	0.0333333
-6.55358 86.8337 -41.8148 -63.9635 -28.1981 -166.114 -70.1915 0 88.8779 115.861 68.7065 -24.3086 1.99805 19.7442 2.08391 -146.902 15.2764 -165.883 -138.795 51.5308 -174.881 0.0286107 -15.8217 -28.3089 -79.0728 14.6068 -82.6747 7.58188 10.8797 -34.9004 0.420957 0.000575603 0.35866 -1.90007 8.47887 36.5657 -41.8483 -27.2333 124.042 -6.43238 -2.17802 108.7 0.58676 0.000330803 0.0646654 -24.5619 28.2535 110.82 -4.93107 65.4643 7.67659 -0.431538 -14.3126 -1.22998 1.46479 -7.59546 16.3685 -35.7836 -14.5469 95.0998 3.746 53.9672 1.96524 -3.50996 -18.4811 1.49031 2.26448 -18.5809 -14.4339 
-7.17819 88.1097 -40.1305 -62.2332 -34.6316 -162.1 -70.1915 0 88.8779 111.351 69.7593 -20.0805 1.59354 19.5829 4.15124 -143.121 17.0221 -167.57 -139.853 53.0272 -174.529 0.103206 -15.541 -27.8329 -79.0541 14.0356 -91.1693 9.25306 13.2675 -35.0179 0.420957 0.000575603 0.35866 -1.96419 8.75444 36.5463 -42.2217 -29.465 123.235 -5.91592 -1.80843 107.009 0.58676 0.000330803 0.0646654 -24.0118 27.0234 114.778 -3.41014 63.2658 10.4007 -0.666281 -13.1139 -1.12429 0.510663 -5.72183 14.6292 -41.9752 -17.3779 88.4501 2.92531 49.5936 1.24077 -4.83453 -14.0458 1.27967 2.20321 -21.9554 -15.8866 
-7.63391 89.1761 -37.9632 -59.4873 -42.9447 -157.163 -70.1915 0 88.8779 104.353 71.2729 -13.7067 2.34975 20.1722 5.16169 -138.1 18.8662 -173.387 -138.358 54.8842 -175.767 0.183091 -15.4317 -26.5799 -79.7556 14.2945 -102.826 8.35579 11.4956 -36.0797 0.420957 0.000575603 0.35866 -2.01267 8.6785 37.3269 -45.0596 -32.0657 121.683 -7.22823 -1.98597 105.279 0.58676 0.000330803 0.0646654 -24.9053 21.7042 114.615 -2.30354 59.5536 11.106 1.64768 -13.3432 -1.17038 -0.0963686 -4.25362 12.7838 -47.3769 -18.5065 85.2412 2.27994 49.542 -3.04506 -4.17123 -6.48834 0.955543 2.05026 -27.5761 -16.4974 
-7.82558 90.1268 -35.7948 -56.5494 -51.1359 -151.662 -70.1915 0 88.8779 105.809 72.1743 -14.4707 1.73769 21.409 4.84541 -134.181 20.467 -178.39 -139.079 57.2164 -175.698 0.212094 -15.3838 -26.1383 -80.1603 16.7503 -113.797 7.57774 9.10612 -39.7887 0.420957 0.000575603 0.35866 -2.04288 8.62297 37.8426 -49.7045 -34.4878 119.663 -6.31262 -1.4081 102.508 0.58676 0.000330803 0.0646654 -27.3657 14.8033 109.086 -2.29882 56.634 8.74474 -0.732717 -17.5304 -1.51622 -2.86902 0.977738 11.197 -49.4284 -17.106 86.1242 1.13069 55.2805 -12.9129 -3.26505 0.487277 0.545911 2.73614 -24.0141 -5.19164 
-7.96726 90.5825 -33.4095 -50.8527 -58.4063 -143.679 -70.1915 0 88.8779 104.524 73.249 -13.6753 1.61131 22.0161 6.61344 -132.304 22.0753 179.527 -143.165 59.8701 -172.27 0.0755252 -15.9283 -27.0566 -80.6046 19.3517 -120.881 4.62694 4.1804 -47.9953 0.420957 0.000575603 0.35866 -2.03011 8.86175 37.01 -56.0893 -35.0203 119.827 -5.19944 -0.779005 98.4451 0.58676 0.000330803 0.0646654 -28.1194 9.3181 103.969 -2.56446 55.8588 6.67267 2.00497 -16.1587 -1.35419 -1.66731 -2.29362 14.7744 -47.487 -14.2852 87.6296 3.77717 64.8568 -10.6027 -7.76292 4.55928 1.10719 2.72074 -13.3919 -24.1657 
-8.64646 91.1831 -31.5092 -43.5688 -64.4423 -135.798 -70.1915 0 88.8779 105.246 74.7004 -16.469 1.25155 23.5395 6.98734 -129.562 22.9932 175.936 -146.082 61.8947 -169.684 0.0429757 -16.2525 -26.649 -80.6681 23.2765 -127.128 6.72536 4.34521 -57.0286 0.420957 0.000575603 0.35866 -2.12309 9.18235 37.1777 -63.2255 -34.2709 119.143 -2.84411 -0.165509 93.2163 0.58676 0.000330803 0.0646654 -30.8891 6.56908 103.271 -3.00619 54.3012 2.95251 1.96733 -17.2959 -1.42842 -2.32837 -0.797292 13.5091 -44.5237 -12.4295 87.4642 7.42709 71.0162 -9.07571 -13.6023 1.85066 1.98426 2.28686 -21.1918 -13.2266 
-9.2701 92.1321 -29.4971 -30.2482 -69.7646 -121.21 -70.1915 0 88.8779 109.827 74.9038 -21.6996 0.155162 24.2273 6.87577 -128.218 23.8506 174.141 -150.878 63.5387 -166.184 0.0262131 -16.4726 -26.3032 -78.9399 26.7721 -132.234 7.37515 3.30571 -65.6238 0.420957 0.000575603 0.35866 -2.13114 9.38869 36.7162 -70.8489 -32.7704 118.033 -2.96841 0.0576425 88.603 0.58676 0.000330803 0.0646654 -33.8262 4.91708 102.501 -3.25561 51.768 -1.07622 1.90132 -17.7477 -1.45972 -2.63331 0.670172 10.9341 -41.4694 -10.9923 84.7916 10.5831 72.7669 -5.2681 -6.20729 -3.56262 1.03562 2.12325 -21.7784 -18.482 
-9.69458 92.6123 -27.481 -7.6555 -72.3488 -97.3866 -70.1915 0 88.8779 112.392 74.5538 -24.0426 -0.985118 24.3653 5.98596 -126.427 24.3498 171.809 -153.755 64.7923 -163.706 0.23932 -15.5481 -25.0436 -75.7904 28.3869 -136.891 9.48075 2.5039 -74.8174 0.420957 0.000575603 0.35866 -2.2749 9.71908 37.3934 -78.0016 -30.0975 116.609 -2.75364 0.258603 84.1744 0.58676 0.000330803 0.0646654 -34.9697 2.51858 100.052 -3.61006 50.4193 -4.96631 2.93882 -16.793 -1.37629 -1.69092 -1.22384 11.6607 -37.4138 -11.8927 80.3619 8.20214 70.7682 -6.49046 -8.46943 -6.74876 1.27262 2.38765 -22.675 -11.0131 
-10.2078 92.9765 -25.4259 16.299 -71.6639 -72.0184 -70.1915 0 88.8779 117.278 73.3491 -27.7181 -2.81853 24.3409 4.10649 -124.551 24.8229 170.287 -158.82 65.8858 -158.704 0.527804 -14.1295 -22.9826 -73.0568 31.6407 -140.527 13.0565 1.64065 -82.333 0.420957 0.000575603 0.35866 -2.7644 10.7376 39.6573 -85.5036 -25.4084 114.024 0.430593 -0.0932751 80.0905 0.58676 0.000330803 0.0646654 -35.7187 0.496208 97.041 -3.81813 49.8185 -7.21136 3.2852 -16.4735 -1.3525 -0.946693 -2.35937 11.2499 -34.124 -12.4069 77.7419 5.89243 65.2991 -3.44998 -6.58892 -10.1284 1.20877 2.24593 -18.8529 -18.1282 
-10.84 93.0646 -23.1506 35.0968 -68.6214 -51.9927 -70.1915 0 88.8779 116.76 74.41 -28.4167 -2.40177 24.6689 6.00421 -124.584 26.1432 168.426 -162.423 67.6175 -156.552 0.217851 -15.9565 -24.2766 -74.0743 30.9123 -140.923 16.0329 0.304015 -88.259 0.420957 0.000575603 0.35866 -2.34866 10.5317 36.1555 -93.4235 -24.0878 112.522 4.35324 -1.1286 75.6283 0.58676 0.000330803 0.0646654 -36.5447 -0.997745 94.4328 -4.23412 50.1229 -10.2075 4.56201 -15.5147 -1.29137 0.730224 -5.73154 13.2509 -31.9227 -12.8031 77.0892 3.63786 57.2377 -2.35636 -8.57442 -8.14331 1.28463 2.24267 -18.8059 -19.291 
-11.5915 92.8506 -20.7456 46.7711 -64.2809 -39.1476 -70.1915 0 88.8779 119.896 74.5678 -31.6961 -3.24649 25.3055 5.94252 -123.712 26.8499 165.156 -163.55 69.1663 -156.451 0.298793 -15.7157 -23.3629 -73.7919 31.8822 -142.829 16.763 -0.797805 -91.9367 0.420957 0.000575603 0.35866 -2.3299 10.2603 36.6079 -100.136 -18.7874 110.761 5.33305 -1.78018 71.7307 0.58676 0.000330803 0.0646654 -36.4132 -1.4056 93.0128 -4.6982 51.7489 -11.5285 5.54375 -16.9817 -1.33019 0.389942 -5.49812 14.4999 -30.382 -12.6049 78.9053 2.33271 47.5685 -0.786487 -5.30036 -3.31645 0.93808 2.39998 -11.5354 -16.231 
-12.3516 92.5003 -17.9594 55.248 -59.1627 -29.865 -70.1915 0 88.8779 117.872 75.126 -30.7858 -2.53507 25.4524 6.44895 -123.367 27.9501 163.147 -167.421 70.696 -153.447 0.258269 -16.055 -23.256 -74.443 31.4831 -143.63 15.9836 -1.26119 -93.67 0.420957 0.000575603 0.35866 -2.32727 10.5721 35.8538 -106.445 -15.0061 108.823 6.97318 -2.90642 67.5865 0.58676 0.000330803 0.0646654 -36.3033 -1.08538 93.6332 -5.10012 53.8067 -11.1993 4.40949 -18.9935 -1.44088 -0.424314 -4.31827 14.9245 -30.7343 -13.0374 81.4392 2.07845 37.0283 4.8414 -1.9507 6.54336 0.00810774 2.3475 -8.33479 -14.9553 
-12.9166 92.1584 -14.9151 62.2345 -52.641 -21.5618 -70.1915 0 88.8779 115.44 74.6276 -28.7324 -2.1825 24.7793 6.09223 -121.689 28.1273 159.987 -168.938 71.8384 -152.536 0.231676 -16.4065 -22.8851 -75.0613 31.5204 -143.222 17.1561 -1.91856 -95.4402 0.420957 0.000575603 0.35866 -2.48489 10.4451 37.6953 -111.152 -9.24603 107.74 10.0951 -5.2381 62.8913 0.58676 0.000330803 0.0646654 -36.542 0.101998 95.6561 -5.40902 55.2774 -10.9457 4.80138 -18.0258 -1.38712 1.48094 -7.67927 16.6572 -32.8057 -14.9446 81.8839 2.20334 28.5491 12.6014 0.166903 16.0692 -1.12126 2.26493 -8.15071 -14.0338 
-13.4039 91.8349 -11.8133 66.8871 -45.681 -15.2125 -70.1915 0 88.8779 109.185 75.1002 -23.0178 -0.331351 24.3581 6.48324 -120.421 28.6028 155.604 -167.46 73.7036 -154.514 -0.0480023 -18.1133 -23.6192 -75.8142 30.1658 -143.181 18.7261 -2.01042 -95.1673 0.420957 0.000575603 0.35866 -2.31517 9.38962 38.7093 -115.292 -4.20003 106.483 10.1599 -6.38729 58.2323 0.58676 0.000330803 0.0646654 -36.6982 1.79603 97.6476 -5.37906 56.3871 -8.72242 4.49812 -18.8958 -1.4332 1.35542 -7.65192 17.4442 -34.935 -16.9875 81.4062 1.86207 24.6662 14.9086 3.74798 19.4795 -2.44832 2.52528 -2.8791 -15.938 
-13.9222 91.1683 -8.65473 70.2125 -38.8645 -9.90801 -70.1915 0 88.8779 108.351 74.0871 -22.2413 -0.408621 23.1328 6.88767 -120.025 29.8263 155.282 -176.884 74.6315 -146.275 0.0111432 -17.4783 -24.0627 -74.6678 28.6382 -143.725 17.6984 -2.00953 -95.5221 0.420957 0.000575603 0.35866 -2.51643 9.63601 40.1527 -118.525 0.108474 104.973 8.87106 -6.55465 53.9423 0.58676 0.000330803 0.0646654 -36.3929 3.97292 98.1602 -5.68461 58.4602 -7.00917 4.77327 -19.2503 -1.43644 2.82454 -9.85066 17.5942 -36.5971 -18.7145 80.2473 2.35538 26.3292 12.9642 5.30147 20.8141 -3.07337 2.04467 -3.98043 -12.3059 
